<svg width="718" height="629" viewBox="0 0 718 629" fill="none" xmlns="http://www.w3.org/2000/svg">
<path d="M490.547 187.53H227.123C224.776 187.528 222.525 186.594 220.866 184.934C219.206 183.275 218.272 181.024 218.27 178.677V100.143C218.272 97.7955 219.206 95.5452 220.866 93.8855C222.525 92.2258 224.776 91.2922 227.123 91.2895H490.547C492.895 91.2922 495.145 92.2258 496.805 93.8855C498.464 95.5452 499.398 97.7955 499.401 100.143V178.677C499.398 181.024 498.464 183.275 496.805 184.934C495.145 186.594 492.895 187.528 490.547 187.53Z" fill="#E6E6E6"/>
<path d="M464.952 181.559H233.096C230.748 181.556 228.498 180.622 226.838 178.963C225.179 177.303 224.245 175.053 224.242 172.706V106.119C224.245 103.772 225.179 101.522 226.838 99.8619C228.498 98.2022 230.748 97.2686 233.096 97.2659H484.576C486.923 97.2686 489.173 98.2022 490.833 99.8619C492.493 101.522 493.426 103.772 493.429 106.119V153.082C493.421 160.632 490.418 167.87 485.079 173.209C479.74 178.547 472.502 181.55 464.952 181.559Z" fill="white"/>
<path d="M372.335 173H345.335C344.009 173 342.737 172.473 341.799 171.536C340.862 170.598 340.335 169.326 340.335 168C340.335 166.674 340.862 165.402 341.799 164.464C342.737 163.527 344.009 163 345.335 163H372.335C373.661 163 374.933 163.527 375.87 164.464C376.808 165.402 377.335 166.674 377.335 168C377.335 169.326 376.808 170.598 375.87 171.536C374.933 172.473 373.661 173 372.335 173Z" fill="#E6E6E6"/>
<path d="M378.538 318.117H339.132C337.197 318.117 335.341 317.348 333.972 315.98C332.604 314.611 331.835 312.755 331.835 310.82C331.835 308.884 332.604 307.028 333.972 305.66C335.341 304.291 337.197 303.522 339.132 303.522H378.538C380.473 303.522 382.329 304.291 383.698 305.66C385.066 307.028 385.835 308.884 385.835 310.82C385.835 312.755 385.066 314.611 383.698 315.98C382.329 317.348 380.473 318.117 378.538 318.117Z" fill="#BD00FF"/>
<path d="M490.547 287.53H227.123C224.776 287.528 222.525 286.594 220.866 284.934C219.206 283.275 218.272 281.024 218.27 278.677V200.143C218.272 197.795 219.206 195.545 220.866 193.886C222.525 192.226 224.776 191.292 227.123 191.289H490.547C492.895 191.292 495.145 192.226 496.805 193.886C498.464 195.545 499.398 197.795 499.401 200.143V278.677C499.398 281.024 498.464 283.275 496.805 284.934C495.145 286.594 492.895 287.528 490.547 287.53Z" fill="#E6E6E6"/>
<path d="M464.952 281.559H233.096C230.748 281.556 228.498 280.622 226.838 278.963C225.179 277.303 224.245 275.053 224.242 272.706V206.119C224.245 203.772 225.179 201.522 226.838 199.862C228.498 198.202 230.748 197.269 233.096 197.266H484.576C486.923 197.269 489.173 198.202 490.833 199.862C492.493 201.522 493.426 203.772 493.429 206.119V253.082C493.421 260.632 490.418 267.87 485.079 273.209C479.74 278.547 472.502 281.55 464.952 281.559Z" fill="white"/>
<path d="M384.975 220.947H279.099C278.493 220.947 277.912 220.707 277.484 220.279C277.056 219.85 276.815 219.27 276.815 218.664C276.815 218.058 277.056 217.478 277.484 217.05C277.912 216.621 278.493 216.381 279.099 216.381H384.975C385.581 216.381 386.162 216.621 386.59 217.05C387.018 217.478 387.259 218.058 387.259 218.664C387.259 219.27 387.018 219.85 386.59 220.279C386.162 220.707 385.581 220.947 384.975 220.947Z" fill="#BD00FF"/>
<path d="M438.572 230.286H279.099C278.493 230.286 277.912 230.045 277.484 229.617C277.056 229.189 276.815 228.608 276.815 228.003C276.815 227.397 277.056 226.816 277.484 226.388C277.912 225.96 278.493 225.719 279.099 225.719H438.572C439.178 225.719 439.758 225.96 440.186 226.388C440.615 226.816 440.855 227.397 440.855 228.003C440.855 228.608 440.615 229.189 440.186 229.617C439.758 230.045 439.178 230.286 438.572 230.286Z" fill="#E6E6E6"/>
<path d="M438.572 241.005H279.099C278.798 241.006 278.501 240.947 278.223 240.833C277.946 240.718 277.694 240.55 277.481 240.338C277.268 240.126 277.1 239.874 276.985 239.597C276.87 239.319 276.811 239.022 276.811 238.722C276.811 238.422 276.87 238.124 276.985 237.847C277.1 237.57 277.268 237.318 277.481 237.106C277.694 236.894 277.946 236.725 278.223 236.611C278.501 236.497 278.798 236.438 279.099 236.439H438.572C439.177 236.44 439.756 236.681 440.183 237.109C440.61 237.537 440.85 238.117 440.85 238.722C440.85 239.327 440.61 239.907 440.183 240.335C439.756 240.763 439.177 241.004 438.572 241.005Z" fill="#E6E6E6"/>
<path d="M438.572 251.724H279.099C278.798 251.725 278.501 251.666 278.223 251.552C277.946 251.438 277.694 251.269 277.481 251.057C277.268 250.845 277.1 250.593 276.985 250.316C276.87 250.039 276.811 249.741 276.811 249.441C276.811 249.141 276.87 248.844 276.985 248.566C277.1 248.289 277.268 248.037 277.481 247.825C277.694 247.613 277.946 247.445 278.223 247.33C278.501 247.216 278.798 247.157 279.099 247.158H438.572C439.177 247.159 439.756 247.4 440.183 247.828C440.61 248.256 440.85 248.836 440.85 249.441C440.85 250.046 440.61 250.626 440.183 251.054C439.756 251.482 439.177 251.723 438.572 251.724Z" fill="#E6E6E6"/>
<path d="M438.572 262.444H279.099C278.798 262.444 278.501 262.386 278.223 262.271C277.946 262.157 277.694 261.989 277.481 261.777C277.268 261.565 277.1 261.313 276.985 261.035C276.87 260.758 276.811 260.461 276.811 260.161C276.811 259.86 276.87 259.563 276.985 259.286C277.1 259.008 277.268 258.756 277.481 258.544C277.694 258.332 277.946 258.164 278.223 258.05C278.501 257.935 278.798 257.877 279.099 257.877H438.572C439.177 257.879 439.756 258.12 440.183 258.548C440.61 258.976 440.85 259.556 440.85 260.161C440.85 260.765 440.61 261.345 440.183 261.773C439.756 262.201 439.177 262.443 438.572 262.444Z" fill="#E6E6E6"/>
<path d="M578.689 615.836L567.988 615.835L562.897 574.558L578.692 574.559L578.689 615.836Z" fill="#A0616A"/>
<path d="M579.066 627L546.158 626.999V626.583C546.158 623.186 547.508 619.928 549.91 617.526C552.312 615.124 555.57 613.774 558.967 613.774L564.979 609.214L576.194 613.775L579.067 613.775L579.066 627Z" fill="#161446"/>
<path d="M666.179 602.133L656.59 606.883L633.703 572.157L647.856 565.146L666.179 602.133Z" fill="#A0616A"/>
<path d="M671.473 611.969L641.985 626.578L641.8 626.205C640.292 623.161 640.055 619.643 641.141 616.424C642.227 613.205 644.547 610.55 647.591 609.042L650.953 602.286L663.028 601.394L665.602 600.119L671.473 611.969Z" fill="#161446"/>
<path d="M546.987 393.964C546.987 393.964 534.805 410.946 543.598 440.285C552.391 469.623 547.455 495.853 549.923 501.113C552.391 506.372 557.359 511.367 553.254 515.355C549.148 519.342 546.987 522.585 550.229 523.666C553.472 524.746 564.28 600.406 564.28 600.406L582.655 601.486C582.655 601.486 589.311 566.341 582.2 537.978C582.2 537.978 583.761 517.387 580.506 511.339C577.25 505.291 577.889 510.747 578.11 503.155C578.232 497.665 579.033 492.211 580.493 486.917C581.574 482.593 582.2 439.019 582.2 439.019L600.087 496.844C600.805 498.836 601.074 500.962 600.876 503.07C600.433 506.049 600.429 510.5 600.972 512.057C601.514 513.615 602.118 513.942 601.816 517.021C601.514 520.1 637.514 585 637.514 585L655.401 573L637.778 516.1C636.028 514.161 634.571 511.976 633.454 509.615C631.293 505.291 631.209 505.053 632.332 501.93C633.454 498.806 633.454 492.721 633.454 490.9C633.454 489.079 634.577 406.397 620.505 394.236C606.433 382.075 546.987 393.964 546.987 393.964Z" fill="#161446"/>
<path d="M613.063 262.423L609.401 252L599.401 242L580.955 239.798L568.947 247.692L557.826 258.656L541.401 395C541.401 395 618.983 424.912 629.149 399.809L613.063 262.423Z" fill="#CCCCCC"/>
<path d="M619.352 262.423L608.576 251.647C608.576 251.647 603.428 320.519 605.621 325.363C607.814 330.206 610.397 328.97 607.605 331.588C604.814 334.206 601.814 331.608 604.814 336.407C606.582 339.098 607.449 342.281 607.291 345.497C607.291 345.497 622.814 443.207 631.814 443.207C640.814 443.207 646.449 440.572 646.131 437.889C645.814 435.206 640.505 428.527 642.16 426.867C643.814 425.207 647.892 426.46 643.853 423.333C639.814 420.206 637.814 421.206 638.814 417.206C639.814 413.206 632.169 361.352 632.169 361.352L631.423 274.739L619.352 262.423Z" fill="#0E0064"/>
<path d="M568.947 247.693L554.991 249.667L538.401 256C538.401 256 545.978 341.482 544.396 344.344C542.814 347.207 540.003 345.419 542.408 348.313C544.814 351.207 546.978 349.923 544.396 352.565C541.814 355.207 537.467 351.86 540.141 356.533C542.814 361.207 529.932 425.549 533.401 429C536.869 432.451 545.806 430.304 545.81 427.755C545.537 425.008 544.499 422.393 542.814 420.207C542.33 419.652 542.064 418.942 542.064 418.207C542.064 417.471 542.33 416.761 542.814 416.207C544.231 414.844 545.204 413.085 545.607 411.161C545.814 409.207 547.341 406.805 548.078 405.006C548.814 403.207 567.356 281.415 567.356 281.415L568.947 247.693Z" fill="#0E0064"/>
<path d="M509.4 315L515.694 311.714C507.836 304.625 488.337 293.028 488.337 293.028L454.731 270.371C454.239 269.213 453.451 268.205 452.445 267.448C451.44 266.692 450.253 266.213 449.003 266.061C447.754 265.909 446.487 266.089 445.33 266.583C444.172 267.076 443.165 267.866 442.409 268.872C441.654 269.878 441.177 271.066 441.027 272.315C440.876 273.565 441.057 274.832 441.552 275.989C442.047 277.146 442.838 278.152 443.845 278.906C444.852 279.66 446.04 280.136 447.29 280.285L484.951 314.026L509.4 315Z" fill="#A0616A"/>
<path d="M555.401 290L555.469 262.366L540.118 255.024L501.401 296L498.401 294H491.401L474.401 314C474.401 314 483.455 319.366 487.928 317.183C492.401 315 491.98 318.136 491.98 318.136C492.644 318.971 493.569 319.557 494.607 319.802C495.644 320.046 496.734 319.933 497.7 319.482C501.401 318 508.401 322 508.401 322L555.401 290Z" fill="#0E0064"/>
<path d="M592.194 233.45C604.558 233.45 614.58 223.427 614.58 211.063C614.58 198.7 604.558 188.677 592.194 188.677C579.83 188.677 569.808 198.7 569.808 211.063C569.808 223.427 579.83 233.45 592.194 233.45Z" fill="#A0616A"/>
<path d="M619.218 216.747C617.105 220.883 614.269 224.608 610.843 227.744C609.86 228.862 608.605 229.708 607.2 230.201C606.494 230.431 605.729 230.406 605.04 230.131C604.35 229.856 603.778 229.347 603.425 228.694L603.01 228.127C604.21 227.76 605.341 227.2 606.361 226.469C606.868 226.101 607.279 225.618 607.561 225.059C607.843 224.5 607.987 223.882 607.982 223.255C607.946 222.63 607.668 222.043 607.208 221.617C606.748 221.192 606.14 220.962 605.514 220.974C604.115 221.141 602.865 222.774 601.612 222.144C600.6 221.63 600.745 220.157 601.036 219.044C602.594 213.239 601.942 204.241 599.7 203.927C597.47 203.473 595.346 202.604 593.438 201.364C591.528 200.123 589.394 199.264 587.157 198.838C586.995 198.816 586.832 198.805 586.658 198.791C586.594 197.594 586.386 196.409 586.037 195.262C585.794 196.473 585.422 197.655 584.929 198.787C582.99 199.052 581.033 199.151 579.078 199.083C576.994 198.841 571.004 203.697 570.96 203.029C570.896 201.832 570.687 200.647 570.339 199.5C570.096 200.711 569.724 201.893 569.231 203.026C569.208 203.072 569.198 203.111 569.176 203.157C568.539 201.605 568.356 199.868 568.372 201.165C567.035 192.916 569.687 187.949 576.457 183.057C577.809 181.978 579.413 181.26 581.119 180.971C581.971 180.834 582.843 180.92 583.652 181.219C584.461 181.518 585.18 182.02 585.738 182.677C588.338 181.302 591.258 180.647 594.195 180.78C597.133 180.914 599.981 181.83 602.446 183.434C607.316 186.697 611.158 188.868 610.509 194.702C615.125 195.146 619.024 198.853 620.482 203.247C621.928 207.647 621.177 212.558 619.218 216.747Z" fill="#161446"/>
<path d="M647.793 333.396L631.732 331.095C626.301 340.178 624.37 364.353 624.37 364.353L608.652 401.712C607.612 402.419 606.775 403.388 606.228 404.521C605.68 405.654 605.441 406.911 605.534 408.166C605.626 409.421 606.048 410.629 606.756 411.669C607.465 412.709 608.434 413.545 609.568 414.091C610.702 414.637 611.959 414.875 613.214 414.78C614.469 414.686 615.677 414.263 616.716 413.553C617.755 412.844 618.589 411.873 619.134 410.739C619.679 409.605 619.915 408.347 619.819 407.092L645.627 363.608L647.793 333.396Z" fill="#A0616A"/>
<path d="M610.813 277.704L617.619 268.331L631.418 274.744L642.896 319.017C642.896 319.017 651.277 324.471 649.489 328.319C647.701 332.166 646.751 335.271 648.599 337.475C650.447 339.68 655.83 339.842 651.82 343.437C647.811 347.032 651.243 356.424 651.243 356.424L647.401 365L623.401 364L610.813 277.704Z" fill="#0E0064"/>
<path d="M55.7382 415.015C57.2531 413.827 58.2444 412.094 58.5012 410.185C58.758 408.277 58.26 406.344 57.1132 404.797C56.8751 404.486 56.6118 404.196 56.3258 403.929L66.5739 380.264L56.3956 370.839L45.8618 404.774C44.8454 406.046 44.2785 407.618 44.2496 409.246C44.2207 410.874 44.7315 412.465 45.7022 413.772C46.2617 414.511 46.9612 415.132 47.7607 415.6C48.5602 416.068 49.444 416.374 50.3617 416.5C51.2795 416.627 52.2131 416.571 53.1094 416.337C54.0056 416.102 54.847 415.694 55.5853 415.134C55.6368 415.095 55.6878 415.056 55.7382 415.015Z" fill="#FFB6B6"/>
<path d="M115.275 261.5C115.275 261.5 107.689 247.079 90.0915 262.653C72.4937 278.227 51.6984 356.182 52.1022 359.113C52.5061 362.043 56.8074 360.884 51.3669 365.104C45.9264 369.323 42.9183 365.532 45.9264 369.323C48.9345 373.114 55.6614 377.131 49.7052 377.695C43.7491 378.258 65.5838 387.653 65.5838 387.653C65.5838 387.653 69.0182 386.828 70.0719 378.904C70.6637 374.453 68.6583 371.925 72.1885 371.184C75.7186 370.442 72.4097 362.393 72.9179 361.126C73.426 359.86 101.613 304.546 101.613 304.546L115.275 261.5Z" fill="#BD00FF"/>
<path d="M149.919 613.706L162.661 613.705L168.724 564.551L149.916 564.552L149.919 613.706Z" fill="#FFB6B6"/>
<path d="M149.469 627L188.657 626.998V626.503C188.657 622.458 187.05 618.578 184.19 615.718C181.329 612.857 177.45 611.25 173.404 611.25H173.403L166.245 605.819L152.89 611.251L149.469 611.251L149.469 627Z" fill="#161446"/>
<path d="M60.597 590.265L71.021 597.594L104.255 560.873L88.868 550.055L60.597 590.265Z" fill="#FFB6B6"/>
<path d="M52.583 600.881L84.6401 623.421L84.9252 623.016C87.2518 619.707 88.1686 615.609 87.4741 611.623C86.7795 607.638 84.5304 604.092 81.2215 601.765L78.4889 593.205L64.4397 589.966L61.6413 587.998L52.583 600.881Z" fill="#161446"/>
<path d="M99.1449 369.166L98.0861 371.428C91.126 386.297 89.3464 402.919 92.0511 419.112C92.2523 419.744 92.2139 420.428 91.9433 421.034C90.2658 423.001 92.8976 431.549 94.4061 436.322L95.7658 444.762C95.7658 444.762 93.5112 452.601 96.9358 452.025C100.36 451.449 95.2608 459.811 98.5274 461.905L107.001 514.508L71.6477 572.776L84.7416 591.762L137.117 524.329L137.772 463.442L145.628 512.544L146.283 589.798L170.104 587.266L178.832 512.367L170.507 408.785L157.413 363.874L99.1449 369.166Z" fill="#161446"/>
<path d="M115.512 234.31L134.783 235.227L143.998 251.148C148.085 252.374 151.844 254.502 154.998 257.375C158.152 260.248 160.621 263.793 162.221 267.748L168.222 282.573L161.396 368.291C161.396 368.291 160.027 373.476 162.547 372.719C165.066 371.962 164.039 378.459 164.039 378.459L173.326 414.175L88.8989 406.834L93.5868 368.993C93.5868 368.993 87.069 369.203 91.6519 364.62C96.2347 360.038 98.4635 361.497 94.061 356.079C89.6586 350.661 89.0039 346.733 89.0039 346.733L87.0398 319.891L83.8018 282.114C83.288 276.12 84.2722 270.092 86.6659 264.572C89.0596 259.052 92.7877 254.214 97.5149 250.493L115.512 234.31Z" fill="#BD00FF"/>
<path d="M125.505 229.889C139.002 229.889 149.944 218.947 149.944 205.45C149.944 191.952 139.002 181.01 125.505 181.01C112.007 181.01 101.065 191.952 101.065 205.45C101.065 218.947 112.007 229.889 125.505 229.889Z" fill="#FFB6B6"/>
<path d="M116.062 227.886C123.075 227.656 123.712 225.803 130.725 225.573C132.958 225.5 135.593 225.194 136.673 223.238C136.987 222.505 137.127 221.709 137.082 220.913C137.036 220.117 136.807 219.342 136.411 218.65C135.611 217.275 134.89 215.856 134.251 214.4C133.866 213.258 133.765 212.039 133.957 210.849C134.148 209.659 134.627 208.533 135.351 207.57C136.075 206.606 137.023 205.834 138.113 205.318C139.203 204.803 140.401 204.561 141.606 204.613C143.74 204.706 145.744 205.709 147.873 205.893C150.791 206.144 157.246 196.507 155.902 193.904C154.594 191.37 151.961 189.458 151.547 186.636C151.277 184.791 152.039 182.957 152.143 181.095C152.297 178.334 145.298 184.56 146.579 182.109C149.724 176.098 120.092 168.645 115.214 176.175C113.391 178.989 110.141 178.797 107.245 180.487C105.347 181.595 100.554 185.417 99.4643 187.798C98.4631 190.229 97.9899 192.844 98.0763 195.472C98.0325 207.69 99.8939 218.929 109.749 226.151" fill="#161446"/>
<path d="M185.442 413.965C184.001 412.688 183.115 410.899 182.973 408.979C182.83 407.059 183.443 405.158 184.68 403.683C184.936 403.387 185.216 403.113 185.517 402.863L176.7 378.629L187.423 369.828L195.912 404.332C196.851 405.662 197.323 407.265 197.255 408.892C197.186 410.519 196.582 412.077 195.534 413.323C194.932 414.027 194.197 414.605 193.371 415.025C192.545 415.444 191.644 415.697 190.72 415.768C189.797 415.84 188.868 415.728 187.987 415.441C187.107 415.153 186.291 414.695 185.588 414.093C185.539 414.051 185.49 414.008 185.442 413.965Z" fill="#FFB6B6"/>
<path d="M135.175 257.17C135.175 257.17 143.608 243.227 160.245 259.823C176.882 276.42 192.987 355.478 192.409 358.379C191.831 361.28 187.606 359.867 192.785 364.403C197.964 368.94 201.193 365.335 197.964 368.94C194.735 372.545 187.78 376.153 193.692 377.071C199.604 377.989 177.248 386.063 177.248 386.063C177.248 386.063 173.869 385.035 173.29 377.062C172.965 372.584 175.117 370.181 171.638 369.229C168.158 368.278 171.942 360.441 171.51 359.147C171.078 357.852 146.243 300.954 146.243 300.954L135.175 257.17Z" fill="#BD00FF"/>
<path d="M378.35 124.271C378.351 128.227 377.179 132.095 374.982 135.386C372.784 138.676 369.661 141.241 366.006 142.756C362.351 144.271 358.328 144.668 354.448 143.897C350.567 143.126 347.002 141.222 344.203 138.425C341.405 135.628 339.499 132.064 338.726 128.183C337.953 124.303 338.348 120.28 339.861 116.625C341.375 112.969 343.938 109.844 347.227 107.645C350.516 105.446 354.384 104.272 358.34 104.271C360.968 104.267 363.571 104.782 366 105.786C368.428 106.789 370.635 108.262 372.494 110.12C374.353 111.978 375.827 114.184 376.832 116.612C377.837 119.04 378.353 121.643 378.35 124.271Z" fill="#BD00FF"/>
<path d="M358.787 127.17C362.653 127.17 365.787 124.036 365.787 120.17C365.787 116.304 362.653 113.17 358.787 113.17C354.921 113.17 351.787 116.304 351.787 120.17C351.787 124.036 354.921 127.17 358.787 127.17Z" fill="white"/>
<path d="M366.291 129.671H351.291C350.363 129.672 349.473 130.041 348.817 130.697C348.161 131.353 347.792 132.243 347.791 133.171C348.004 136.168 348.472 139.142 349.19 142.061C352.199 143.611 355.551 144.372 358.934 144.272C362.317 144.172 365.619 143.215 368.531 141.491C369.173 138.755 369.594 135.973 369.791 133.171C369.79 132.243 369.42 131.353 368.764 130.697C368.108 130.041 367.218 129.672 366.291 129.671Z" fill="white"/>
</svg>
