<svg width="593" height="740" viewBox="0 0 593 740" fill="none" xmlns="http://www.w3.org/2000/svg">
<g clip-path="url(#clip0_19_25)">
<path d="M345.373 383.981C356.489 383.981 365.5 374.954 365.5 363.819C365.5 352.684 356.489 343.658 345.373 343.658C334.257 343.658 325.246 352.684 325.246 363.819C325.246 374.954 334.257 383.981 345.373 383.981Z" fill="#F2F2F2"/>
<path d="M501.508 683.203C531.425 660.377 545.714 622.021 536.768 585.431C536.546 584.522 536.311 583.615 536.065 582.71C530.134 560.991 515.462 540.349 494.077 533.409C476.121 527.582 456.522 532.063 437.79 529.745C401.018 525.197 372.51 495.393 352.45 464.188C332.391 432.984 316.974 398.054 290.32 372.275C246.384 329.781 174.713 320.633 120.239 348.293C65.7647 375.953 31.0652 437.319 32.5451 498.478C34.025 559.637 70.2707 618.109 122.908 649.133C142.245 660.529 164.611 668.603 186.868 665.778C206.181 663.327 223.729 652.932 242.951 649.846C273.172 644.994 303.201 658.681 329.34 674.631C355.479 690.581 380.728 709.486 410.431 716.88C439.273 724.06 475.006 703.423 501.508 683.203Z" fill="#F2F2F2"/>
<path d="M458.524 349.577C457.868 349.139 457.205 348.724 456.549 348.301C437.591 336.156 417.272 326.289 396.01 318.905L391.08 387.03H359.827V308.96C357.86 308.552 355.877 308.167 353.895 307.805V387.03H316.754C296.308 387.03 276.699 378.894 262.241 364.411C247.784 349.929 239.662 330.287 239.662 309.806C237.672 310.236 235.697 310.697 233.722 311.188V387.03H203.471L198.775 322.069C176.925 330.463 156.182 341.501 137.007 354.938C136.675 355.165 136.344 355.399 136.02 355.625C134.354 356.796 132.71 357.989 131.075 359.197V619.094H220.228L218.653 597.234L209.984 477.211H384.56L375.891 597.234L374.315 619.094H462.482V352.205C461.17 351.314 459.851 350.438 458.524 349.577ZM233.722 457.39H208.552L203.901 392.98H233.722V457.39ZM353.895 457.39H311.621V456.114C311.621 455.5 311.5 454.893 311.265 454.326C311.031 453.759 310.687 453.245 310.254 452.811C309.82 452.378 309.306 452.034 308.74 451.8C308.174 451.566 307.567 451.446 306.955 451.447H288.577C287.965 451.447 287.359 451.567 286.794 451.802C286.228 452.036 285.715 452.38 285.282 452.813C284.849 453.247 284.506 453.761 284.272 454.328C284.038 454.894 283.918 455.501 283.918 456.114V457.39H239.662V392.98H353.895V457.39ZM359.827 457.39V392.98H390.651L386 457.39H359.827Z" fill="#423A9B"/>
<path d="M-0.116211 635.737C6.43237 643.51 13.5154 650.814 21.0811 657.597L571.803 658.352C579.368 651.569 586.451 644.265 593 636.492L-0.116211 635.737Z" fill="#423A9B"/>
<path d="M373.346 565.74V630.455C373.347 631.279 373.674 632.07 374.256 632.653C374.838 633.236 375.628 633.564 376.451 633.565H472.189C473.012 633.564 473.801 633.236 474.384 632.653C474.966 632.07 475.293 631.279 475.294 630.455V565.74C475.292 564.916 474.964 564.126 474.382 563.544C473.8 562.961 473.011 562.634 472.189 562.633H376.451C375.628 562.634 374.84 562.961 374.258 563.544C373.676 564.126 373.348 564.916 373.346 565.74Z" fill="#423A9B"/>
<path d="M375.592 566.545V629.656C375.593 630.097 375.768 630.519 376.079 630.831C376.39 631.142 376.812 631.318 377.252 631.319H471.392C471.832 631.318 472.254 631.142 472.565 630.831C472.876 630.519 473.051 630.097 473.051 629.656V566.545C473.051 566.104 472.877 565.681 472.566 565.368C472.254 565.056 471.832 564.88 471.392 564.879H377.252C376.811 564.88 376.389 565.056 376.078 565.368C375.767 565.681 375.592 566.104 375.592 566.545Z" fill="#BD00FF"/>
<path d="M371.344 643.076C371.519 643.296 371.742 643.474 371.996 643.595C372.25 643.717 372.528 643.779 372.809 643.778H475.322C475.602 643.778 475.879 643.715 476.132 643.594C476.385 643.473 476.608 643.297 476.784 643.079C476.961 642.861 477.087 642.606 477.153 642.333C477.219 642.06 477.223 641.776 477.165 641.501L475.574 633.929C475.508 633.62 475.366 633.333 475.161 633.093C474.956 632.854 474.694 632.669 474.4 632.557C474.186 632.473 473.959 632.43 473.73 632.43H374.394C374.165 632.43 373.938 632.473 373.724 632.557C373.43 632.669 373.168 632.854 372.963 633.093C372.758 633.333 372.616 633.62 372.55 633.929L370.959 641.501C370.902 641.775 370.907 642.059 370.974 642.332C371.04 642.604 371.167 642.858 371.344 643.076Z" fill="#161446"/>
<path d="M470.213 635.691H472.634C472.837 635.691 473.002 635.526 473.002 635.323V634.162C473.002 633.959 472.837 633.794 472.634 633.794H470.213C470.009 633.794 469.845 633.959 469.845 634.162V635.323C469.845 635.526 470.009 635.691 470.213 635.691Z" fill="#423A9B"/>
<path d="M463.898 635.691H466.319C466.523 635.691 466.688 635.526 466.688 635.323V634.162C466.688 633.959 466.523 633.794 466.319 633.794H463.898C463.695 633.794 463.53 633.959 463.53 634.162V635.323C463.53 635.526 463.695 635.691 463.898 635.691Z" fill="#423A9B"/>
<path d="M457.583 635.691H460.005C460.208 635.691 460.373 635.526 460.373 635.323V634.162C460.373 633.959 460.208 633.794 460.005 633.794H457.583C457.38 633.794 457.215 633.959 457.215 634.162V635.323C457.215 635.526 457.38 635.691 457.583 635.691Z" fill="#423A9B"/>
<path d="M451.269 635.691H453.69C453.893 635.691 454.058 635.526 454.058 635.323V634.162C454.058 633.959 453.893 633.794 453.69 633.794H451.269C451.065 633.794 450.901 633.959 450.901 634.162V635.323C450.901 635.526 451.065 635.691 451.269 635.691Z" fill="#423A9B"/>
<path d="M444.954 635.691H447.375C447.579 635.691 447.743 635.526 447.743 635.323V634.162C447.743 633.959 447.579 633.794 447.375 633.794H444.954C444.751 633.794 444.586 633.959 444.586 634.162V635.323C444.586 635.526 444.751 635.691 444.954 635.691Z" fill="#423A9B"/>
<path d="M438.639 635.691H441.061C441.264 635.691 441.429 635.526 441.429 635.323V634.162C441.429 633.959 441.264 633.794 441.061 633.794H438.639C438.436 633.794 438.271 633.959 438.271 634.162V635.323C438.271 635.526 438.436 635.691 438.639 635.691Z" fill="#423A9B"/>
<path d="M432.324 635.691H434.746C434.949 635.691 435.114 635.526 435.114 635.323V634.162C435.114 633.959 434.949 633.794 434.746 633.794H432.324C432.121 633.794 431.956 633.959 431.956 634.162V635.323C431.956 635.526 432.121 635.691 432.324 635.691Z" fill="#423A9B"/>
<path d="M426.01 635.691H428.431C428.635 635.691 428.799 635.526 428.799 635.323V634.162C428.799 633.959 428.635 633.794 428.431 633.794H426.01C425.807 633.794 425.642 633.959 425.642 634.162V635.323C425.642 635.526 425.807 635.691 426.01 635.691Z" fill="#423A9B"/>
<path d="M419.695 635.691H422.117C422.32 635.691 422.485 635.526 422.485 635.323V634.162C422.485 633.959 422.32 633.794 422.117 633.794H419.695C419.492 633.794 419.327 633.959 419.327 634.162V635.323C419.327 635.526 419.492 635.691 419.695 635.691Z" fill="#423A9B"/>
<path d="M413.381 635.691H415.802C416.005 635.691 416.17 635.526 416.17 635.323V634.162C416.17 633.959 416.005 633.794 415.802 633.794H413.381C413.177 633.794 413.013 633.959 413.013 634.162V635.323C413.013 635.526 413.177 635.691 413.381 635.691Z" fill="#423A9B"/>
<path d="M407.066 635.691H409.487C409.69 635.691 409.855 635.526 409.855 635.323V634.162C409.855 633.959 409.69 633.794 409.487 633.794H407.066C406.863 633.794 406.698 633.959 406.698 634.162V635.323C406.698 635.526 406.863 635.691 407.066 635.691Z" fill="#423A9B"/>
<path d="M400.751 635.691H403.172C403.376 635.691 403.541 635.526 403.541 635.323V634.162C403.541 633.959 403.376 633.794 403.172 633.794H400.751C400.548 633.794 400.383 633.959 400.383 634.162V635.323C400.383 635.526 400.548 635.691 400.751 635.691Z" fill="#423A9B"/>
<path d="M394.436 635.691H396.858C397.061 635.691 397.226 635.526 397.226 635.323V634.162C397.226 633.959 397.061 633.794 396.858 633.794H394.436C394.233 633.794 394.068 633.959 394.068 634.162V635.323C394.068 635.526 394.233 635.691 394.436 635.691Z" fill="#423A9B"/>
<path d="M388.122 635.691H390.543C390.746 635.691 390.911 635.526 390.911 635.323V634.162C390.911 633.959 390.746 633.794 390.543 633.794H388.122C387.919 633.794 387.754 633.959 387.754 634.162V635.323C387.754 635.526 387.919 635.691 388.122 635.691Z" fill="#423A9B"/>
<path d="M381.807 635.691H384.228C384.432 635.691 384.596 635.526 384.596 635.323V634.162C384.596 633.959 384.432 633.794 384.228 633.794H381.807C381.604 633.794 381.439 633.959 381.439 634.162V635.323C381.439 635.526 381.604 635.691 381.807 635.691Z" fill="#423A9B"/>
<path d="M375.492 635.691H377.914C378.117 635.691 378.282 635.526 378.282 635.323V634.162C378.282 633.959 378.117 633.794 377.914 633.794H375.492C375.289 633.794 375.124 633.959 375.124 634.162V635.323C375.124 635.526 375.289 635.691 375.492 635.691Z" fill="#423A9B"/>
<path d="M470.287 638.854H472.709C472.912 638.854 473.077 638.689 473.077 638.485V637.325C473.077 637.122 472.912 636.956 472.709 636.956H470.287C470.084 636.956 469.919 637.122 469.919 637.325V638.485C469.919 638.689 470.084 638.854 470.287 638.854Z" fill="#423A9B"/>
<path d="M463.973 638.854H466.394C466.597 638.854 466.762 638.689 466.762 638.485V637.325C466.762 637.122 466.597 636.956 466.394 636.956H463.973C463.769 636.956 463.605 637.122 463.605 637.325V638.485C463.605 638.689 463.769 638.854 463.973 638.854Z" fill="#423A9B"/>
<path d="M457.658 638.854H460.079C460.282 638.854 460.447 638.689 460.447 638.485V637.325C460.447 637.122 460.282 636.956 460.079 636.956H457.658C457.455 636.956 457.29 637.122 457.29 637.325V638.485C457.29 638.689 457.455 638.854 457.658 638.854Z" fill="#423A9B"/>
<path d="M451.343 638.854H453.765C453.968 638.854 454.133 638.689 454.133 638.485V637.325C454.133 637.122 453.968 636.956 453.765 636.956H451.343C451.14 636.956 450.975 637.122 450.975 637.325V638.485C450.975 638.689 451.14 638.854 451.343 638.854Z" fill="#423A9B"/>
<path d="M445.029 638.854H447.45C447.653 638.854 447.818 638.689 447.818 638.485V637.325C447.818 637.122 447.653 636.956 447.45 636.956H445.029C444.825 636.956 444.661 637.122 444.661 637.325V638.485C444.661 638.689 444.825 638.854 445.029 638.854Z" fill="#423A9B"/>
<path d="M438.714 638.854H441.135C441.338 638.854 441.503 638.689 441.503 638.485V637.325C441.503 637.122 441.338 636.956 441.135 636.956H438.714C438.511 636.956 438.346 637.122 438.346 637.325V638.485C438.346 638.689 438.511 638.854 438.714 638.854Z" fill="#423A9B"/>
<path d="M432.399 638.854H434.82C435.024 638.854 435.188 638.689 435.188 638.485V637.325C435.188 637.122 435.024 636.956 434.82 636.956H432.399C432.196 636.956 432.031 637.122 432.031 637.325V638.485C432.031 638.689 432.196 638.854 432.399 638.854Z" fill="#423A9B"/>
<path d="M426.084 638.854H428.506C428.709 638.854 428.874 638.689 428.874 638.485V637.325C428.874 637.122 428.709 636.956 428.506 636.956H426.084C425.881 636.956 425.716 637.122 425.716 637.325V638.485C425.716 638.689 425.881 638.854 426.084 638.854Z" fill="#423A9B"/>
<path d="M419.77 638.854H422.191C422.394 638.854 422.559 638.689 422.559 638.485V637.325C422.559 637.122 422.394 636.956 422.191 636.956H419.77C419.567 636.956 419.402 637.122 419.402 637.325V638.485C419.402 638.689 419.567 638.854 419.77 638.854Z" fill="#423A9B"/>
<path d="M413.455 638.854H415.877C416.08 638.854 416.245 638.689 416.245 638.485V637.325C416.245 637.122 416.08 636.956 415.877 636.956H413.455C413.252 636.956 413.087 637.122 413.087 637.325V638.485C413.087 638.689 413.252 638.854 413.455 638.854Z" fill="#423A9B"/>
<path d="M407.14 638.854H409.562C409.765 638.854 409.93 638.689 409.93 638.485V637.325C409.93 637.122 409.765 636.956 409.562 636.956H407.14C406.937 636.956 406.772 637.122 406.772 637.325V638.485C406.772 638.689 406.937 638.854 407.14 638.854Z" fill="#423A9B"/>
<path d="M400.826 638.854H403.247C403.45 638.854 403.615 638.689 403.615 638.485V637.325C403.615 637.122 403.45 636.956 403.247 636.956H400.826C400.623 636.956 400.458 637.122 400.458 637.325V638.485C400.458 638.689 400.623 638.854 400.826 638.854Z" fill="#423A9B"/>
<path d="M394.511 638.854H396.932C397.136 638.854 397.3 638.689 397.3 638.485V637.325C397.3 637.122 397.136 636.956 396.932 636.956H394.511C394.308 636.956 394.143 637.122 394.143 637.325V638.485C394.143 638.689 394.308 638.854 394.511 638.854Z" fill="#423A9B"/>
<path d="M388.196 638.854H390.618C390.821 638.854 390.986 638.689 390.986 638.485V637.325C390.986 637.122 390.821 636.956 390.618 636.956H388.196C387.993 636.956 387.828 637.122 387.828 637.325V638.485C387.828 638.689 387.993 638.854 388.196 638.854Z" fill="#423A9B"/>
<path d="M381.882 638.854H384.303C384.506 638.854 384.671 638.689 384.671 638.485V637.325C384.671 637.122 384.506 636.956 384.303 636.956H381.882C381.678 636.956 381.514 637.122 381.514 637.325V638.485C381.514 638.689 381.678 638.854 381.882 638.854Z" fill="#423A9B"/>
<path d="M375.567 638.854H377.988C378.192 638.854 378.356 638.689 378.356 638.485V637.325C378.356 637.122 378.192 636.956 377.988 636.956H375.567C375.364 636.956 375.199 637.122 375.199 637.325V638.485C375.199 638.689 375.364 638.854 375.567 638.854Z" fill="#423A9B"/>
<path d="M417.875 642.649H442.398C442.601 642.649 442.766 642.484 442.766 642.281V641.12C442.766 640.917 442.601 640.752 442.398 640.752H417.875C417.672 640.752 417.507 640.917 417.507 641.12V642.281C417.507 642.484 417.672 642.649 417.875 642.649Z" fill="#423A9B"/>
<path d="M391.894 578.686H389.751C389.101 578.686 388.574 579.214 388.574 579.865C388.574 580.516 389.101 581.044 389.751 581.044H391.894C392.544 581.044 393.071 580.516 393.071 579.865C393.071 579.214 392.544 578.686 391.894 578.686Z" fill="white"/>
<path d="M416.411 578.686H414.267C413.617 578.686 413.09 579.214 413.09 579.865C413.09 580.516 413.617 581.044 414.267 581.044H416.411C417.061 581.044 417.588 580.516 417.588 579.865C417.588 579.214 417.061 578.686 416.411 578.686Z" fill="white"/>
<path d="M423.357 578.686H421.213C420.563 578.686 420.037 579.214 420.037 579.865C420.037 580.516 420.563 581.044 421.213 581.044H423.357C424.007 581.044 424.534 580.516 424.534 579.865C424.534 579.214 424.007 578.686 423.357 578.686Z" fill="white"/>
<path d="M409.742 578.49H396.419C395.769 578.49 395.242 579.018 395.242 579.669C395.242 580.32 395.769 580.848 396.419 580.848H409.742C410.392 580.848 410.919 580.32 410.919 579.669C410.919 579.018 410.392 578.49 409.742 578.49Z" fill="white"/>
<path d="M442.431 578.49H429.108C428.458 578.49 427.931 579.018 427.931 579.669C427.931 580.32 428.458 580.848 429.108 580.848H442.431C443.08 580.848 443.607 580.32 443.607 579.669C443.607 579.018 443.08 578.49 442.431 578.49Z" fill="white"/>
<path d="M398.432 584.007H396.289C395.639 584.007 395.112 584.535 395.112 585.186C395.112 585.837 395.639 586.365 396.289 586.365H398.432C399.082 586.365 399.609 585.837 399.609 585.186C399.609 584.535 399.082 584.007 398.432 584.007Z" fill="white"/>
<path d="M422.948 584.007H420.805C420.155 584.007 419.628 584.535 419.628 585.186C419.628 585.837 420.155 586.365 420.805 586.365H422.948C423.598 586.365 424.125 585.837 424.125 585.186C424.125 584.535 423.598 584.007 422.948 584.007Z" fill="white"/>
<path d="M429.895 584.007H427.751C427.101 584.007 426.574 584.535 426.574 585.186C426.574 585.837 427.101 586.365 427.751 586.365H429.895C430.544 586.365 431.071 585.837 431.071 585.186C431.071 584.535 430.544 584.007 429.895 584.007Z" fill="white"/>
<path d="M416.28 583.811H402.957C402.307 583.811 401.78 584.339 401.78 584.99C401.78 585.641 402.307 586.168 402.957 586.168H416.28C416.93 586.168 417.457 585.641 417.457 584.99C417.457 584.339 416.93 583.811 416.28 583.811Z" fill="white"/>
<path d="M448.968 583.811H435.645C434.995 583.811 434.469 584.339 434.469 584.99C434.469 585.641 434.995 586.168 435.645 586.168H448.968C449.618 586.168 450.145 585.641 450.145 584.99C450.145 584.339 449.618 583.811 448.968 583.811Z" fill="white"/>
<path d="M404.97 589.328H402.826C402.176 589.328 401.649 589.856 401.649 590.507C401.649 591.158 402.176 591.686 402.826 591.686H404.97C405.62 591.686 406.147 591.158 406.147 590.507C406.147 589.856 405.62 589.328 404.97 589.328Z" fill="white"/>
<path d="M429.486 589.328H427.343C426.693 589.328 426.166 589.856 426.166 590.507C426.166 591.158 426.693 591.686 427.343 591.686H429.486C430.136 591.686 430.663 591.158 430.663 590.507C430.663 589.856 430.136 589.328 429.486 589.328Z" fill="white"/>
<path d="M436.432 589.328H434.289C433.639 589.328 433.112 589.856 433.112 590.507C433.112 591.158 433.639 591.686 434.289 591.686H436.432C437.082 591.686 437.609 591.158 437.609 590.507C437.609 589.856 437.082 589.328 436.432 589.328Z" fill="white"/>
<path d="M422.818 589.132H409.495C408.845 589.132 408.318 589.659 408.318 590.31C408.318 590.962 408.845 591.489 409.495 591.489H422.818C423.467 591.489 423.994 590.962 423.994 590.31C423.994 589.659 423.467 589.132 422.818 589.132Z" fill="white"/>
<path d="M455.506 589.132H442.183C441.533 589.132 441.006 589.659 441.006 590.31C441.006 590.962 441.533 591.489 442.183 591.489H455.506C456.156 591.489 456.683 590.962 456.683 590.31C456.683 589.659 456.156 589.132 455.506 589.132Z" fill="white"/>
<path d="M411.507 594.649H409.364C408.714 594.649 408.187 595.177 408.187 595.828C408.187 596.479 408.714 597.007 409.364 597.007H411.507C412.157 597.007 412.684 596.479 412.684 595.828C412.684 595.177 412.157 594.649 411.507 594.649Z" fill="white"/>
<path d="M436.024 594.649H433.88C433.23 594.649 432.703 595.177 432.703 595.828C432.703 596.479 433.23 597.007 433.88 597.007H436.024C436.674 597.007 437.2 596.479 437.2 595.828C437.2 595.177 436.674 594.649 436.024 594.649Z" fill="white"/>
<path d="M442.97 594.649H440.826C440.177 594.649 439.65 595.177 439.65 595.828C439.65 596.479 440.177 597.007 440.826 597.007H442.97C443.62 597.007 444.147 596.479 444.147 595.828C444.147 595.177 443.62 594.649 442.97 594.649Z" fill="white"/>
<path d="M429.355 594.453H416.032C415.382 594.453 414.855 594.98 414.855 595.631C414.855 596.282 415.382 596.81 416.032 596.81H429.355C430.005 596.81 430.532 596.282 430.532 595.631C430.532 594.98 430.005 594.453 429.355 594.453Z" fill="white"/>
<path d="M416.411 615.807H414.267C413.617 615.807 413.09 616.335 413.09 616.986C413.09 617.637 413.617 618.165 414.267 618.165H416.411C417.061 618.165 417.588 617.637 417.588 616.986C417.588 616.335 417.061 615.807 416.411 615.807Z" fill="white"/>
<path d="M423.357 615.807H421.213C420.563 615.807 420.037 616.335 420.037 616.986C420.037 617.637 420.563 618.165 421.213 618.165H423.357C424.007 618.165 424.534 617.637 424.534 616.986C424.534 616.335 424.007 615.807 423.357 615.807Z" fill="white"/>
<path d="M442.431 616.004H429.108C428.458 616.004 427.931 616.532 427.931 617.183C427.931 617.834 428.458 618.361 429.108 618.361H442.431C443.08 618.361 443.607 617.834 443.607 617.183C443.607 616.532 443.08 616.004 442.431 616.004Z" fill="white"/>
<path d="M391.894 615.807H389.751C389.101 615.807 388.574 616.335 388.574 616.986C388.574 617.637 389.101 618.165 389.751 618.165H391.894C392.544 618.165 393.071 617.637 393.071 616.986C393.071 616.335 392.544 615.807 391.894 615.807Z" fill="white"/>
<path d="M409.742 616.004H396.419C395.769 616.004 395.242 616.532 395.242 617.183C395.242 617.834 395.769 618.361 396.419 618.361H409.742C410.392 618.361 410.919 617.834 410.919 617.183C410.919 616.532 410.392 616.004 409.742 616.004Z" fill="white"/>
<path d="M398.432 610.487H396.289C395.639 610.487 395.112 611.014 395.112 611.665C395.112 612.316 395.639 612.844 396.289 612.844H398.432C399.082 612.844 399.609 612.316 399.609 611.665C399.609 611.014 399.082 610.487 398.432 610.487Z" fill="white"/>
<path d="M422.948 610.487H420.805C420.155 610.487 419.628 611.014 419.628 611.665C419.628 612.316 420.155 612.844 420.805 612.844H422.948C423.598 612.844 424.125 612.316 424.125 611.665C424.125 611.014 423.598 610.487 422.948 610.487Z" fill="white"/>
<path d="M429.895 610.487H427.751C427.101 610.487 426.574 611.014 426.574 611.665C426.574 612.316 427.101 612.844 427.751 612.844H429.895C430.544 612.844 431.071 612.316 431.071 611.665C431.071 611.014 430.544 610.487 429.895 610.487Z" fill="white"/>
<path d="M416.28 610.683H402.957C402.307 610.683 401.78 611.211 401.78 611.862C401.78 612.513 402.307 613.041 402.957 613.041H416.28C416.93 613.041 417.457 612.513 417.457 611.862C417.457 611.211 416.93 610.683 416.28 610.683Z" fill="white"/>
<path d="M404.97 605.166H402.826C402.176 605.166 401.649 605.693 401.649 606.344C401.649 606.995 402.176 607.523 402.826 607.523H404.97C405.62 607.523 406.147 606.995 406.147 606.344C406.147 605.693 405.62 605.166 404.97 605.166Z" fill="white"/>
<path d="M429.486 605.166H427.343C426.693 605.166 426.166 605.693 426.166 606.344C426.166 606.995 426.693 607.523 427.343 607.523H429.486C430.136 607.523 430.663 606.995 430.663 606.344C430.663 605.693 430.136 605.166 429.486 605.166Z" fill="white"/>
<path d="M436.432 605.166H434.289C433.639 605.166 433.112 605.693 433.112 606.344C433.112 606.995 433.639 607.523 434.289 607.523H436.432C437.082 607.523 437.609 606.995 437.609 606.344C437.609 605.693 437.082 605.166 436.432 605.166Z" fill="white"/>
<path d="M422.818 605.362H409.495C408.845 605.362 408.318 605.89 408.318 606.541C408.318 607.192 408.845 607.72 409.495 607.72H422.818C423.467 607.72 423.994 607.192 423.994 606.541C423.994 605.89 423.467 605.362 422.818 605.362Z" fill="white"/>
<path d="M411.507 599.845H409.364C408.714 599.845 408.187 600.372 408.187 601.024C408.187 601.675 408.714 602.202 409.364 602.202H411.507C412.157 602.202 412.684 601.675 412.684 601.024C412.684 600.372 412.157 599.845 411.507 599.845Z" fill="white"/>
<path d="M436.024 599.845H433.88C433.23 599.845 432.703 600.372 432.703 601.024C432.703 601.675 433.23 602.202 433.88 602.202H436.024C436.674 602.202 437.2 601.675 437.2 601.024C437.2 600.372 436.674 599.845 436.024 599.845Z" fill="white"/>
<path d="M442.97 599.845H440.826C440.177 599.845 439.65 600.372 439.65 601.024C439.65 601.675 440.177 602.202 440.826 602.202H442.97C443.62 602.202 444.147 601.675 444.147 601.024C444.147 600.372 443.62 599.845 442.97 599.845Z" fill="white"/>
<path d="M429.355 600.041H416.032C415.382 600.041 414.855 600.569 414.855 601.22C414.855 601.871 415.382 602.399 416.032 602.399H429.355C430.005 602.399 430.532 601.871 430.532 601.22C430.532 600.569 430.005 600.041 429.355 600.041Z" fill="white"/>
<path d="M380.498 678.167L370.435 662.233L402.021 637.01L415.058 622.542C416.752 620.662 418.909 619.261 421.313 618.477C423.717 617.694 426.284 617.557 428.757 618.078C431.231 618.6 433.525 619.763 435.409 621.451C437.293 623.139 438.703 625.293 439.496 627.698C440.671 631.261 440.418 635.142 438.791 638.522C437.163 641.902 434.289 644.516 430.774 645.813L410.158 653.421L380.498 678.167Z" fill="#FFB6B6"/>
<path d="M144.382 562.636V640.079H198.544V562.636C198.545 562.079 198.368 561.536 198.038 561.088C197.708 560.639 197.244 560.309 196.712 560.144C196.462 560.061 196.2 560.02 195.936 560.023H146.998C146.655 560.023 146.315 560.09 145.998 560.221C145.681 560.352 145.393 560.544 145.15 560.787C144.907 561.029 144.714 561.317 144.582 561.635C144.451 561.952 144.383 562.292 144.382 562.636ZM165.519 589.246C165.534 587.719 166.149 586.259 167.232 585.185C168.314 584.11 169.777 583.507 171.301 583.507C172.825 583.507 174.288 584.11 175.371 585.185C176.453 586.259 177.069 587.719 177.083 589.246V598.231C177.075 599.762 176.463 601.228 175.379 602.307C174.296 603.387 172.829 603.993 171.301 603.993C169.773 603.993 168.307 603.387 167.223 602.307C166.14 601.228 165.527 599.762 165.519 598.231V589.246Z" fill="#161446"/>
<path d="M144.217 637.602V645.07C144.218 645.457 144.371 645.828 144.644 646.102C144.916 646.376 145.285 646.532 145.672 646.535H197.255C197.642 646.533 198.012 646.378 198.284 646.103C198.557 645.829 198.71 645.457 198.71 645.07V637.602H144.217Z" fill="#423A9B"/>
<path d="M59.1788 445.958V587.358C59.1803 589.16 59.8955 590.887 61.1675 592.162C62.4395 593.436 64.1643 594.152 65.9632 594.154H275.147C276.946 594.152 278.67 593.436 279.942 592.162C281.214 590.887 281.93 589.16 281.931 587.358V445.958C281.927 444.158 281.21 442.433 279.939 441.16C278.667 439.888 276.944 439.172 275.147 439.17H65.9632C64.1659 439.172 62.4427 439.888 61.1711 441.16C59.8995 442.433 59.1831 444.158 59.1788 445.958Z" fill="#423A9B"/>
<path d="M64.0862 447.718V585.614C64.0878 586.576 64.4704 587.499 65.15 588.18C65.8296 588.861 66.7509 589.244 67.712 589.246H273.405C274.366 589.244 275.288 588.861 275.967 588.18C276.647 587.499 277.03 586.576 277.031 585.614V447.718C277.031 446.754 276.649 445.829 275.97 445.147C275.29 444.464 274.368 444.08 273.405 444.078H67.712C66.7497 444.08 65.8276 444.464 65.1478 445.147C64.4681 445.829 64.0863 446.754 64.0862 447.718Z" fill="white"/>
<path d="M102.259 646.029C102.469 646.292 102.735 646.504 103.038 646.649C103.341 646.794 103.672 646.869 104.008 646.867H226.382C226.717 646.867 227.047 646.792 227.35 646.647C227.652 646.503 227.918 646.293 228.128 646.032C228.339 645.772 228.49 645.468 228.568 645.142C228.647 644.816 228.652 644.477 228.584 644.149L226.684 635.11C226.605 634.742 226.436 634.399 226.191 634.113C225.946 633.826 225.633 633.606 225.282 633.472C225.027 633.372 224.756 633.32 224.483 633.321H105.9C105.627 633.32 105.356 633.372 105.101 633.472C104.75 633.606 104.437 633.826 104.192 634.112C103.947 634.399 103.778 634.742 103.699 635.11L101.8 644.149C101.732 644.477 101.738 644.816 101.818 645.141C101.897 645.466 102.048 645.769 102.259 646.029Z" fill="#161446"/>
<path d="M266.73 463.074H74.2635C74.0634 463.069 73.8731 462.987 73.7331 462.843C73.5932 462.7 73.5149 462.508 73.5149 462.307C73.5149 462.107 73.5932 461.914 73.7331 461.771C73.8731 461.628 74.0634 461.545 74.2635 461.54H266.73C266.93 461.545 267.12 461.628 267.26 461.771C267.4 461.914 267.478 462.107 267.478 462.307C267.478 462.508 267.4 462.7 267.26 462.843C267.12 462.987 266.93 463.069 266.73 463.074Z" fill="#423A9B"/>
<path d="M87.3649 457.626C89.8422 457.626 91.8504 455.569 91.8504 453.033C91.8504 450.496 89.8422 448.439 87.3649 448.439C84.8876 448.439 82.8794 450.496 82.8794 453.033C82.8794 455.569 84.8876 457.626 87.3649 457.626Z" fill="#423A9B"/>
<path d="M102.86 457.626C105.338 457.626 107.346 455.569 107.346 453.033C107.346 450.496 105.338 448.439 102.86 448.439C100.383 448.439 98.3749 450.496 98.3749 453.033C98.3749 455.569 100.383 457.626 102.86 457.626Z" fill="#423A9B"/>
<path d="M118.356 457.626C120.833 457.626 122.841 455.569 122.841 453.033C122.841 450.496 120.833 448.439 118.356 448.439C115.878 448.439 113.87 450.496 113.87 453.033C113.87 455.569 115.878 457.626 118.356 457.626Z" fill="#423A9B"/>
<path d="M257.399 449.575H246.393C246.176 449.58 245.969 449.67 245.817 449.826C245.665 449.982 245.58 450.192 245.58 450.41C245.58 450.627 245.665 450.837 245.817 450.993C245.969 451.149 246.176 451.239 246.393 451.244H257.399C257.618 451.241 257.827 451.152 257.981 450.995C258.134 450.839 258.22 450.629 258.22 450.41C258.22 450.19 258.134 449.98 257.981 449.824C257.827 449.667 257.618 449.578 257.399 449.575Z" fill="#423A9B"/>
<path d="M257.399 452.709H246.393C246.176 452.714 245.968 452.804 245.816 452.96C245.664 453.116 245.579 453.325 245.579 453.543C245.579 453.761 245.664 453.971 245.816 454.127C245.968 454.283 246.176 454.373 246.393 454.378H257.399C257.618 454.375 257.828 454.286 257.982 454.13C258.136 453.973 258.222 453.763 258.222 453.543C258.222 453.324 258.136 453.113 257.982 452.957C257.828 452.801 257.618 452.711 257.399 452.709Z" fill="#423A9B"/>
<path d="M257.399 455.842H246.393C246.176 455.847 245.969 455.938 245.817 456.094C245.665 456.249 245.58 456.459 245.58 456.677C245.58 456.895 245.665 457.104 245.817 457.26C245.969 457.416 246.176 457.506 246.393 457.511H257.399C257.618 457.508 257.827 457.419 257.981 457.263C258.134 457.107 258.22 456.896 258.22 456.677C258.22 456.458 258.134 456.247 257.981 456.091C257.827 455.935 257.618 455.846 257.399 455.842Z" fill="#423A9B"/>
<path d="M522.726 640.879C523.058 641.848 523.688 642.686 524.526 643.274C525.363 643.862 526.365 644.168 527.387 644.15L547.357 643.635C548.387 643.615 549.382 643.262 550.195 642.628C551.008 641.994 551.594 641.114 551.865 640.119L554.691 609.849C555.694 610.304 556.786 610.528 557.886 610.506C558.842 610.482 559.784 610.27 560.658 609.881C561.532 609.492 562.322 608.935 562.981 608.241C563.64 607.547 564.156 606.729 564.5 605.835C564.843 604.941 565.008 603.988 564.984 603.03C564.96 602.073 564.748 601.129 564.36 600.253C563.972 599.378 563.415 598.587 562.722 597.927C562.029 597.267 561.213 596.75 560.321 596.405C559.428 596.061 558.477 595.896 557.521 595.92C557.081 595.919 556.642 595.965 556.212 596.057C555.744 595.55 555.175 595.147 554.543 594.873C553.91 594.6 553.227 594.462 552.538 594.469L521.819 595.263C521.564 595.273 521.311 595.304 521.062 595.358C520.388 595.483 519.749 595.752 519.188 596.146C518.627 596.54 518.156 597.05 517.808 597.641C517.46 598.232 517.242 598.891 517.17 599.574C517.098 600.257 517.172 600.947 517.388 601.598L522.726 640.879ZM555.271 607.793L557.282 600.58C557.511 599.747 557.516 598.868 557.297 598.032C557.395 598.032 557.481 597.986 557.578 597.985C558.957 597.957 560.291 598.477 561.288 599.432C562.284 600.387 562.862 601.699 562.894 603.08C562.926 604.461 562.41 605.799 561.46 606.799C560.509 607.8 559.201 608.382 557.822 608.419C556.931 608.446 556.049 608.23 555.271 607.793Z" fill="#161446"/>
<path d="M521.062 595.357C521.716 599.106 529.074 601.741 537.921 601.283C546.057 600.907 552.709 598.046 553.928 594.654C553.477 594.521 553.008 594.458 552.538 594.469L521.819 595.263C521.565 595.273 521.311 595.304 521.062 595.357Z" fill="#423A9B"/>
<path d="M539.543 624.246C539.583 624.236 539.622 624.219 539.657 624.196L543.994 621.352C544.046 621.318 544.089 621.271 544.119 621.216C544.149 621.161 544.164 621.1 544.164 621.037C544.164 620.974 544.149 620.912 544.119 620.857C544.089 620.802 544.046 620.755 543.994 620.721L539.486 617.764C539.445 617.736 539.398 617.717 539.35 617.708C539.301 617.698 539.251 617.699 539.202 617.709C539.154 617.719 539.108 617.738 539.067 617.766C539.026 617.794 538.99 617.83 538.963 617.871C538.936 617.913 538.917 617.959 538.908 618.008C538.899 618.057 538.899 618.107 538.91 618.156C538.92 618.205 538.94 618.251 538.968 618.292C538.996 618.333 539.032 618.368 539.073 618.395L543.099 621.036L539.244 623.564C539.17 623.613 539.115 623.687 539.089 623.773C539.064 623.858 539.07 623.95 539.105 624.032C539.141 624.114 539.205 624.18 539.285 624.219C539.365 624.259 539.457 624.268 539.543 624.246Z" fill="#BD00FF"/>
<path d="M532.693 624.563C532.766 624.544 532.832 624.504 532.882 624.448C532.932 624.392 532.964 624.322 532.974 624.248C532.984 624.173 532.972 624.097 532.939 624.03C532.906 623.962 532.853 623.906 532.788 623.869L528.791 621.573L532.655 618.698C532.694 618.669 532.728 618.632 532.753 618.589C532.778 618.547 532.795 618.5 532.803 618.451C532.81 618.402 532.807 618.352 532.795 618.304C532.783 618.256 532.762 618.21 532.732 618.171C532.703 618.131 532.666 618.097 532.623 618.072C532.581 618.046 532.534 618.03 532.485 618.022C532.436 618.015 532.386 618.018 532.338 618.03C532.29 618.042 532.245 618.063 532.205 618.093L527.879 621.312C527.829 621.349 527.789 621.398 527.762 621.455C527.736 621.512 527.724 621.574 527.728 621.637C527.731 621.699 527.751 621.76 527.784 621.813C527.817 621.866 527.862 621.911 527.916 621.942L532.413 624.524C532.498 624.573 532.598 624.587 532.693 624.563Z" fill="#BD00FF"/>
<path d="M539.111 626.738C539.148 626.729 539.183 626.714 539.215 626.694C539.257 626.668 539.294 626.635 539.323 626.595C539.352 626.555 539.373 626.509 539.385 626.461C539.397 626.413 539.399 626.363 539.391 626.314C539.384 626.265 539.367 626.218 539.341 626.175L533.193 616.051C533.141 615.965 533.057 615.904 532.96 615.881C532.863 615.857 532.761 615.873 532.675 615.925C532.59 615.977 532.529 616.061 532.505 616.158C532.481 616.256 532.497 616.358 532.549 616.444L538.697 626.568C538.739 626.637 538.802 626.691 538.876 626.721C538.951 626.752 539.033 626.758 539.111 626.738Z" fill="#BD00FF"/>
<path d="M193.493 504.755H160.182C158.823 504.755 157.721 505.858 157.721 507.22V510.48C157.721 511.841 158.823 512.944 160.182 512.944H193.493C194.852 512.944 195.954 511.841 195.954 510.48V507.22C195.954 505.858 194.852 504.755 193.493 504.755Z" fill="#BD00FF"/>
<path d="M212.91 521.134H140.764C139.405 521.134 138.304 522.238 138.304 523.599V526.859C138.304 528.22 139.405 529.324 140.764 529.324H212.91C214.269 529.324 215.371 528.22 215.371 526.859V523.599C215.371 522.238 214.269 521.134 212.91 521.134Z" fill="#E6E6E6"/>
<path d="M212.91 537.513H140.764C139.405 537.513 138.304 538.617 138.304 539.978V543.238C138.304 544.599 139.405 545.703 140.764 545.703H212.91C214.269 545.703 215.371 544.599 215.371 543.238V539.978C215.371 538.617 214.269 537.513 212.91 537.513Z" fill="#E6E6E6"/>
<path d="M219.026 592.36L219.19 592.877L219.198 592.894L224.117 607.874L229.775 625.136L240.421 657.576L240.524 662.615V662.633L241.315 703.17L239.123 708.665L241.591 717.675C241.591 717.675 240.455 704.056 234.367 711.877C230.919 716.322 226.886 720.87 223.575 725.134C228.399 727.089 233.301 728.858 238.28 730.44C239.355 730.785 240.438 731.112 241.522 731.439C241.754 731.508 241.986 731.577 242.218 731.646C258.723 736.535 275.786 739.283 292.988 739.821C293.883 739.847 294.76 739.864 295.611 739.881C295.912 739.89 296.205 739.898 296.497 739.898C297.46 739.907 298.415 739.915 299.378 739.915C301.321 739.915 303.256 739.887 305.182 739.829C319.439 739.427 333.613 737.507 347.465 734.101C347.37 728.373 347.112 721.68 346.742 714.53C346.57 711.024 342.709 707.226 342.477 703.556C342.314 700.8 345.779 698.207 345.599 695.407C344.429 678.171 342.967 684.788 341.884 672.582C341.772 671.384 341.669 670.239 341.574 669.145C340.878 661.306 340.396 656.405 340.396 656.405L345.023 627.195L352.289 581.335L351.73 580.413L351.102 580.103L312.775 561.101L310.694 555.76C310.088 554.221 309.036 552.9 307.674 551.965C306.311 551.03 304.701 550.525 303.05 550.514L277.802 550.411C276.492 550.405 275.199 550.712 274.031 551.307C272.863 551.901 271.853 552.767 271.086 553.83L264.25 563.314L219.026 592.36Z" fill="#423A9B"/>
<path d="M246.243 650.358L240.524 662.616L236.62 670.988L229.904 706.211L226.542 709.785L223.661 697.13L193.51 703.836C192.521 698.332 193.246 704.023 192.635 697.984C192.807 697.812 192.988 697.64 193.168 697.467C193.65 697.019 194.054 696.597 194.045 696.193C193.701 675.364 194.733 639.918 203.35 618.443C204.699 614.937 206.479 611.613 208.647 608.546C208.819 608.313 208.982 608.081 209.146 607.848C213.118 602.275 215.629 596.788 219.19 592.886V592.877C219.212 592.859 219.232 592.839 219.25 592.817C219.263 592.811 219.274 592.802 219.284 592.791L243.74 579.801L244.79 609.33L245.538 630.555L246.243 650.358Z" fill="#423A9B"/>
<path d="M334.428 653.839L341.571 669.149L344.064 674.481L350.778 709.7L354.129 713.266L357.017 700.614L358.374 700.335L382.841 695.259L389.973 717.947C391.58 715.264 392.213 712.108 391.765 709.011C391.317 705.915 389.816 703.068 387.514 700.953C387.027 700.511 386.622 700.082 386.633 699.675C387.039 675.177 385.543 630.445 372.034 612.034C367.743 606.191 365.169 600.372 361.423 596.306C361.412 596.295 361.412 596.283 361.4 596.283L352.286 581.334L351.729 580.416L351.103 580.102L334.428 653.839Z" fill="#423A9B"/>
<path d="M291.155 543.213C309.706 543.213 324.744 528.15 324.744 509.567C324.744 490.985 309.706 475.922 291.155 475.922C272.605 475.922 257.566 490.985 257.566 509.567C257.566 528.15 272.605 543.213 291.155 543.213Z" fill="#FFB6B6"/>
<path d="M336.554 486.066C336.294 485.787 335.98 485.564 335.632 485.41C335.283 485.255 334.907 485.173 334.526 485.167L335.031 483.763C335.196 483.321 335.241 482.842 335.16 482.377C335.08 481.912 334.877 481.476 334.574 481.115C334.27 480.754 333.876 480.48 333.432 480.322C332.988 480.164 332.51 480.126 332.046 480.214L330.207 480.569L330.38 479.338C330.447 478.88 330.393 478.412 330.224 477.981C330.056 477.549 329.778 477.169 329.418 476.878C329.058 476.587 328.629 476.395 328.173 476.321C327.716 476.246 327.248 476.292 326.815 476.454C326.421 476.609 325.997 476.674 325.574 476.644C325.151 476.614 324.741 476.49 324.372 476.28C324.003 476.077 323.681 475.795 323.432 475.455C323.182 475.114 323.009 474.723 322.925 474.309L322.284 471.213L322.217 471.047C319.096 465.837 313.095 462.046 305.753 460.657C299.218 459.411 292.516 460.045 286.056 460.642C283.493 460.883 280.598 461.155 278.186 462.635C276.136 463.904 274.402 466.441 274.756 469.001C268.387 467.045 261.557 470.949 258.172 475.872C254.162 481.732 253.506 489.071 253.401 494.81C253.114 508.387 255.911 519.494 261.693 527.83C262.115 528.435 262.22 529.696 263.057 530.118L262.884 529.839C263.819 530.307 264.768 531.062 264.414 531.87C263.396 534.196 270.158 539.338 274.922 541.037C283.614 544.141 295.17 543.876 303.296 542.759L303.582 540.833C306.515 540.433 308.58 539.67 309.16 538.477C310.186 537.601 311.06 536.816 311.821 536.091L311.829 536.084C311.844 536.069 311.874 536.046 311.889 536.031C315.56 532.504 316.412 530.496 316.797 527.438C317.166 524.44 316.51 521.397 315.839 518.656C329.966 520.846 310.276 503.584 323.438 500.247C323.589 500.2 323.742 500.162 323.898 500.133C324.282 500.043 324.666 499.952 325.036 499.847C326.816 499.362 328.521 498.633 330.101 497.679C333.78 495.437 334.994 492.462 336.893 489.109C337.167 488.632 337.282 488.079 337.221 487.532C337.16 486.985 336.927 486.471 336.554 486.066Z" fill="#161446"/>
<path d="M409.953 656.235C409.946 657.556 409.93 659.406 409.87 661.694C409.863 662.011 409.855 662.336 409.847 662.668C409.75 666.874 409.652 670.4 409.493 674.319C409.486 674.591 409.478 674.855 409.463 675.127C409.252 680.594 408.92 686.96 408.347 697.04C407.285 715.661 405.43 699.6 403.568 706.132C403.478 706.456 403.38 706.841 403.289 707.294C403.007 708.938 402.532 710.543 401.872 712.074C400.885 712.663 399.867 713.23 398.864 713.796C396.007 715.389 393.105 716.922 390.181 718.379C388.537 719.195 386.886 719.995 385.228 720.765C384.964 720.886 384.708 721.007 384.452 721.12C375.959 725.055 367.207 728.4 358.256 731.133C356.508 731.661 354.766 732.175 353.002 732.651C351.163 733.164 349.324 733.647 347.462 734.1C333.611 737.507 319.437 739.428 305.18 739.832C303.258 739.892 301.321 739.915 299.376 739.915C298.411 739.915 297.461 739.907 296.496 739.9C296.202 739.9 295.908 739.892 295.615 739.884C294.763 739.862 293.881 739.847 292.991 739.824C275.788 739.287 258.726 736.538 242.222 731.646L241.521 731.442C240.435 731.11 239.357 730.786 238.279 730.438C233.304 728.86 228.402 727.093 223.572 725.137C219.886 723.65 216.243 722.054 212.642 720.35C212.609 720.341 212.578 720.326 212.552 720.305C211.798 719.957 211.037 719.595 210.283 719.225C210.185 719.172 210.079 719.119 209.974 719.066C207.162 717.692 204.38 716.252 201.629 714.747C199.315 709.424 196.058 708.404 194.038 703.723C193.45 702.332 193.025 700.877 192.772 699.389C192.772 699.373 192.764 699.358 192.764 699.336C192.975 702.145 191.867 694.352 192.757 699.306C192.749 699.215 192.741 699.117 192.734 699.003C192.711 698.732 192.681 698.399 192.636 697.984C190.05 672.696 190.216 643.776 189.093 619.945C189.018 618.404 188.94 616.929 188.859 615.52C188.837 615.052 188.807 614.591 188.776 614.138C188.829 614.002 188.889 613.859 188.957 613.723C188.972 613.684 188.989 613.646 189.01 613.609C189.032 613.563 189.057 613.517 189.085 613.474C189.101 613.451 189.123 613.421 189.138 613.398C189.149 613.372 189.162 613.347 189.176 613.323C189.244 613.217 189.319 613.104 189.402 612.998C189.44 612.953 189.47 612.915 189.508 612.877C189.534 612.838 189.564 612.803 189.598 612.771C189.621 612.735 189.649 612.702 189.681 612.673C189.711 612.643 189.741 612.605 189.779 612.567C189.795 612.544 189.816 612.523 189.839 612.507C189.899 612.438 189.964 612.375 190.035 612.318C190.304 612.07 190.591 611.843 190.895 611.639C191 611.571 191.113 611.503 191.219 611.427C191.978 610.972 192.778 610.588 193.608 610.279C193.895 610.174 194.181 610.076 194.49 609.97C194.603 609.94 194.709 609.902 194.822 609.864C194.988 609.811 195.154 609.758 195.327 609.721C196.186 609.464 197.114 609.245 198.116 609.041C198.237 609.018 198.365 608.996 198.493 608.966C198.674 608.928 198.862 608.898 199.051 608.867C199.307 608.822 199.571 608.777 199.835 608.732C202.074 608.377 204.614 608.112 207.418 607.939C207.682 607.924 207.946 607.909 208.21 607.893C208.519 607.878 208.828 607.863 209.144 607.848C209.408 607.833 209.68 607.825 209.951 607.818C210.215 607.803 210.486 607.795 210.765 607.788C211.526 607.765 212.31 607.742 213.109 607.727C215.386 607.682 217.783 607.697 220.301 607.75C221.469 607.78 222.66 607.81 223.882 607.863C223.964 607.863 224.04 607.871 224.115 607.871C225.178 607.908 226.248 607.954 227.349 608.014C228.118 608.052 228.894 608.09 229.671 608.135C230.402 608.18 231.141 608.226 231.887 608.279C232.467 608.309 233.048 608.354 233.636 608.392C234.133 608.43 234.631 608.467 235.128 608.497L235.807 608.543C236.176 608.573 236.546 608.596 236.922 608.633C237.752 608.701 238.581 608.769 239.425 608.837C240.262 608.913 241.114 608.988 241.965 609.064C242.817 609.139 243.677 609.222 244.536 609.305C244.626 609.313 244.709 609.321 244.792 609.328C245.576 609.411 246.36 609.487 247.152 609.57C247.333 609.585 247.521 609.6 247.702 609.623C248.457 609.699 249.226 609.787 249.988 609.868C250.221 609.894 250.454 609.918 250.688 609.944C251.285 610.009 251.873 610.065 252.474 610.136C253.265 610.227 254.072 610.31 254.856 610.415C255.466 610.483 256.077 610.551 256.687 610.627C257.645 610.74 258.617 610.861 259.59 610.989C259.959 611.035 260.328 611.08 260.698 611.133C263.472 611.48 266.276 611.865 269.125 612.265C273.445 612.877 277.832 613.542 282.249 614.259C286.674 614.976 291.124 615.734 295.599 616.532C296.73 616.736 297.861 616.939 298.999 617.151C299.512 617.249 300.024 617.347 300.537 617.445C301.411 617.604 302.286 617.77 303.16 617.936C304.034 618.102 304.909 618.268 305.783 618.442C306.824 618.646 307.871 618.85 308.912 619.054C315.764 620.413 322.578 621.863 329.227 623.38C330.32 623.63 331.413 623.886 332.499 624.136C334.67 624.641 336.82 625.155 338.951 625.676C339.539 625.812 340.12 625.955 340.7 626.099C342.147 626.461 343.595 626.824 345.019 627.194L345.268 627.262C346.316 627.518 347.341 627.783 348.366 628.054C350.786 628.689 353.166 629.331 355.505 629.98C357.058 630.41 358.593 630.846 360.111 631.286C362.38 631.943 364.603 632.608 366.767 633.28C367.302 633.446 367.837 633.612 368.365 633.771C369.948 634.261 371.508 634.76 373.024 635.258C374.23 635.651 375.406 636.051 376.567 636.451C377.727 636.851 378.866 637.252 379.981 637.652C380.697 637.908 381.406 638.18 382.115 638.437C383.132 638.815 384.135 639.192 385.115 639.57C385.416 639.683 385.71 639.804 386.004 639.917C386.193 640 386.374 640.068 386.555 640.144C386.909 640.287 387.271 640.423 387.617 640.566C387.972 640.702 388.318 640.846 388.665 640.997C389.004 641.133 389.351 641.276 389.683 641.42C390.022 641.556 390.354 641.699 390.685 641.85C390.964 641.963 391.236 642.084 391.5 642.205C392.035 642.439 392.57 642.673 393.09 642.915C393.346 643.036 393.603 643.149 393.859 643.27L394.447 643.541C394.53 643.587 394.613 643.625 394.696 643.662C394.884 643.753 395.08 643.851 395.269 643.942C395.706 644.146 396.136 644.365 396.558 644.568C397.123 644.855 397.673 645.142 398.201 645.422C398.736 645.709 399.256 645.996 399.754 646.275C399.837 646.32 399.912 646.366 399.995 646.411C400.108 646.471 400.221 646.539 400.334 646.6C400.719 646.819 401.088 647.045 401.457 647.264C402.181 647.71 402.867 648.148 403.508 648.586C403.651 648.684 403.787 648.782 403.93 648.872C404.405 649.212 404.857 649.545 405.279 649.884C405.279 649.892 405.279 649.892 405.287 649.892C405.43 649.998 405.566 650.111 405.701 650.217C405.815 650.322 405.935 650.413 406.048 650.519C406.44 650.858 406.802 651.183 407.134 651.515C407.245 651.618 407.351 651.726 407.45 651.84C407.494 651.876 407.535 651.917 407.571 651.961C407.722 652.112 407.857 652.263 407.986 652.414C408.005 652.435 408.023 652.457 408.038 652.482C408.219 652.693 408.385 652.905 408.543 653.116C408.619 653.222 408.702 653.328 408.77 653.433C408.86 653.562 408.95 653.698 409.026 653.826C409.094 653.932 409.154 654.045 409.214 654.151C409.374 654.423 409.51 654.708 409.621 655.004C409.706 655.204 409.774 655.411 409.825 655.623C409.882 655.824 409.925 656.028 409.953 656.235Z" fill="#161446"/>
<path opacity="0.2" d="M409.953 656.235C409.946 657.556 409.931 659.406 409.87 661.694C409.863 662.011 409.848 662.336 409.84 662.668C409.765 665.877 409.652 669.842 409.493 674.319C409.486 674.591 409.478 674.855 409.463 675.127C409.252 680.594 408.92 686.96 408.347 697.04C407.285 715.661 405.43 699.6 403.568 706.132C398.397 702.945 392.728 699.608 386.668 696.179C385.575 695.56 384.472 694.939 383.359 694.314C371.237 687.541 357.699 680.443 343.565 673.413C343.007 673.134 342.441 672.854 341.884 672.583C309.507 656.552 274.168 640.959 245.539 630.554C240.013 628.545 234.736 626.733 229.776 625.14C219.328 621.795 210.298 619.454 203.348 618.442C196.111 617.385 191.113 617.763 189.093 619.945C189.018 618.404 188.94 616.929 188.859 615.52C188.829 615.052 188.799 614.591 188.769 614.138C188.815 614.014 188.876 613.895 188.934 613.775C188.943 613.758 188.949 613.74 188.957 613.723C188.972 613.684 188.989 613.646 189.01 613.609C189.032 613.563 189.057 613.517 189.085 613.474C189.11 613.42 189.14 613.369 189.176 613.323C189.244 613.217 189.319 613.104 189.402 612.998C189.463 612.919 189.528 612.843 189.598 612.771C189.621 612.735 189.649 612.702 189.681 612.673C189.711 612.643 189.741 612.605 189.779 612.567C189.795 612.544 189.815 612.523 189.839 612.507C189.899 612.438 189.964 612.375 190.035 612.318C190.304 612.07 190.591 611.843 190.895 611.639C191 611.571 191.113 611.503 191.219 611.427C191.978 610.972 192.778 610.588 193.608 610.28C193.895 610.174 194.181 610.076 194.49 609.97C194.603 609.94 194.709 609.902 194.822 609.864C194.988 609.811 195.154 609.759 195.327 609.721C196.186 609.464 197.114 609.245 198.116 609.041C198.418 608.981 198.734 608.92 199.051 608.867C199.307 608.822 199.571 608.777 199.835 608.732C202.074 608.377 204.614 608.112 207.418 607.939C207.682 607.924 207.946 607.908 208.21 607.893C208.519 607.878 208.828 607.863 209.144 607.848C209.408 607.833 209.68 607.825 209.951 607.818C210.215 607.803 210.486 607.795 210.765 607.788C211.526 607.765 212.31 607.742 213.109 607.727C215.386 607.69 217.783 607.705 220.301 607.757C221.469 607.78 222.66 607.818 223.882 607.871C223.957 607.871 224.04 607.878 224.115 607.878C225.178 607.909 226.256 607.961 227.349 608.014C228.118 608.052 228.894 608.09 229.671 608.135C230.402 608.18 231.141 608.226 231.887 608.278C232.467 608.309 233.048 608.354 233.636 608.392C234.133 608.43 234.631 608.467 235.128 608.497C235.724 608.543 236.319 608.588 236.922 608.633C237.752 608.701 238.581 608.769 239.425 608.837C240.262 608.913 241.114 608.988 241.965 609.064C242.817 609.139 243.677 609.222 244.536 609.305C244.626 609.313 244.709 609.321 244.792 609.328C245.576 609.411 246.36 609.487 247.152 609.57C251.539 610.015 256.054 610.536 260.698 611.133C263.472 611.488 266.281 611.868 269.125 612.273C273.445 612.885 277.832 613.549 282.249 614.259C286.674 614.976 291.124 615.734 295.599 616.532C296.73 616.736 297.861 616.939 298.999 617.151C300.386 617.408 301.773 617.669 303.16 617.936C304.035 618.102 304.909 618.268 305.783 618.442C306.824 618.646 307.872 618.85 308.912 619.054C315.764 620.413 322.578 621.863 329.227 623.38C330.32 623.63 331.413 623.886 332.499 624.136C334.67 624.641 336.82 625.155 338.951 625.676C339.539 625.819 340.12 625.963 340.7 626.106C342.155 626.469 343.595 626.831 345.019 627.194V627.201C345.102 627.216 345.185 627.239 345.268 627.262C346.308 627.526 347.341 627.79 348.366 628.062C350.786 628.696 353.166 629.336 355.505 629.98C357.058 630.418 358.596 630.848 360.111 631.286C362.38 631.951 364.604 632.615 366.767 633.28C367.302 633.446 367.837 633.612 368.365 633.771C369.948 634.269 371.501 634.765 373.024 635.258C374.23 635.651 375.406 636.051 376.567 636.451C377.728 636.851 378.866 637.252 379.981 637.652C380.705 637.909 381.414 638.173 382.115 638.43C383.14 638.807 384.135 639.185 385.115 639.57C385.416 639.683 385.71 639.804 386.004 639.917C386.555 640.129 387.09 640.347 387.618 640.566C387.972 640.702 388.319 640.846 388.665 640.997C389.005 641.133 389.351 641.276 389.683 641.42C390.022 641.556 390.354 641.699 390.686 641.85C390.964 641.963 391.236 642.084 391.5 642.205C392.035 642.439 392.57 642.673 393.09 642.915C393.347 643.036 393.603 643.149 393.859 643.27L394.447 643.542C394.53 643.587 394.613 643.625 394.696 643.662C395.337 643.964 395.955 644.266 396.558 644.568C397.123 644.855 397.673 645.142 398.201 645.422C398.827 645.754 399.422 646.079 399.995 646.411C400.108 646.471 400.221 646.539 400.334 646.6C400.719 646.819 401.088 647.045 401.458 647.264C402.181 647.71 402.867 648.148 403.508 648.586C404.141 649.024 404.729 649.454 405.279 649.884C405.279 649.892 405.279 649.892 405.287 649.892C405.551 650.103 405.807 650.315 406.048 650.519C406.44 650.858 406.802 651.183 407.134 651.515C407.245 651.618 407.351 651.726 407.45 651.84C407.494 651.876 407.535 651.917 407.571 651.961C407.729 652.135 407.888 652.308 408.038 652.482C408.219 652.693 408.385 652.905 408.543 653.116C408.619 653.222 408.702 653.328 408.77 653.433C408.86 653.562 408.951 653.698 409.026 653.826C409.094 653.932 409.154 654.045 409.214 654.151C409.374 654.423 409.511 654.708 409.621 655.004C409.704 655.205 409.772 655.412 409.825 655.623C409.882 655.824 409.925 656.028 409.953 656.235Z" fill="black"/>
<path d="M311.325 229.764C297.537 238.601 289.977 254.73 292.558 270.917C292.622 271.319 292.691 271.721 292.766 272.122C294.568 281.753 300.199 291.227 309.229 294.997C316.811 298.162 325.472 296.915 333.515 298.585C349.304 301.865 360.613 315.804 368.206 330.051C375.799 344.297 381.246 359.994 391.893 372.123C409.443 392.114 440.207 398.628 464.819 388.567C489.431 378.505 506.661 353.122 508.191 326.544C509.721 299.966 496.074 273.317 474.343 257.992C466.36 252.362 456.945 248.066 447.19 248.5C438.725 248.877 430.744 252.762 422.296 253.418C409.015 254.449 396.475 247.445 385.703 239.599C374.931 231.753 364.65 222.656 352.027 218.394C339.771 214.255 323.539 221.936 311.325 229.764Z" fill="#F2F2F2"/>
<path d="M206.115 282.967C217.238 282.967 226.255 273.931 226.255 262.785C226.255 251.638 217.238 242.602 206.115 242.602C194.992 242.602 185.975 251.638 185.975 262.785C185.975 273.931 194.992 282.967 206.115 282.967Z" fill="#F2F2F2"/>
<path d="M464.15 138.438C475.273 138.438 484.29 129.402 484.29 118.256C484.29 107.109 475.273 98.0733 464.15 98.0733C453.027 98.0733 444.01 107.109 444.01 118.256C444.01 129.402 453.027 138.438 464.15 138.438Z" fill="#F2F2F2"/>
<path d="M421.009 6.42868H7.59143V271.149H421.009V6.42868Z" fill="#E6E6E6"/>
<path d="M410.54 39.631H20.7649V255.487H410.54V39.631Z" fill="white"/>
<path d="M420.832 6.19411H7.41431V23.7541H420.832V6.19411Z" fill="#5B33CE"/>
<path d="M20.4667 18.4267C22.2646 18.4267 23.7222 16.9695 23.7222 15.1719C23.7222 13.3742 22.2646 11.917 20.4667 11.917C18.6687 11.917 17.2112 13.3742 17.2112 15.1719C17.2112 16.9695 18.6687 18.4267 20.4667 18.4267Z" fill="white"/>
<path d="M32.8228 18.4267C34.6207 18.4267 36.0782 16.9695 36.0782 15.1719C36.0782 13.3742 34.6207 11.917 32.8228 11.917C31.0248 11.917 29.5673 13.3742 29.5673 15.1719C29.5673 16.9695 31.0248 18.4267 32.8228 18.4267Z" fill="white"/>
<path d="M45.1787 18.4267C46.9767 18.4267 48.4342 16.9695 48.4342 15.1719C48.4342 13.3742 46.9767 11.917 45.1787 11.917C43.3808 11.917 41.9232 13.3742 41.9232 15.1719C41.9232 16.9695 43.3808 18.4267 45.1787 18.4267Z" fill="white"/>
<path d="M88.9571 69.886L63.1748 95.3415L88.9571 120.796L94.7582 114.996L75.2624 95.5017L94.9211 75.8468L88.9571 69.886Z" fill="#5B33CE"/>
<path d="M110.082 69.886L135.864 95.3415L110.082 120.796L104.281 114.996L123.778 95.5023L104.118 75.8468L110.082 69.886Z" fill="#5B33CE"/>
<path d="M193.477 76.274C191.368 76.274 189.659 77.4867 189.659 78.982C189.659 80.4773 191.368 81.69 193.477 81.69H373.468C375.577 81.69 377.286 80.4773 377.286 78.982C377.286 77.4867 375.577 76.274 373.468 76.274H193.477Z" fill="#E6E6E6"/>
<path d="M371.679 224.638H68.8888C65.7935 224.638 63.2851 222.852 63.2817 220.65V167.219C63.2851 165.017 65.7935 163.231 68.8888 163.231H371.679C374.774 163.231 377.282 165.017 377.286 167.219V220.649C377.283 222.851 374.774 224.636 371.679 224.638ZM68.8888 164.825C67.0315 164.825 65.5264 165.897 65.5244 167.217V220.648C65.5244 221.969 67.0315 223.04 68.8888 223.041H371.679C373.536 223.041 375.041 221.969 375.043 220.648V167.219C375.043 165.898 373.536 164.827 371.679 164.826L68.8888 164.825Z" fill="#E6E6E6"/>
<path d="M100.069 207.455C107.551 207.455 113.616 201.392 113.616 193.911C113.616 186.431 107.551 180.367 100.069 180.367C92.5875 180.367 86.5225 186.431 86.5225 193.911C86.5225 201.392 92.5875 207.455 100.069 207.455Z" fill="#E6E6E6"/>
<path d="M138.276 183.079C137.558 183.079 136.869 183.363 136.36 183.87C135.852 184.377 135.565 185.066 135.564 185.784C135.563 186.502 135.848 187.191 136.355 187.7C136.862 188.208 137.551 188.494 138.269 188.495H265.968C266.686 188.495 267.375 188.21 267.883 187.702C268.391 187.194 268.677 186.506 268.677 185.787C268.677 185.069 268.391 184.38 267.883 183.873C267.375 183.365 266.686 183.079 265.968 183.079H138.276Z" fill="#5B33CE"/>
<path d="M138.276 199.328C137.921 199.328 137.568 199.397 137.24 199.533C136.911 199.669 136.612 199.868 136.36 200.119C135.852 200.626 135.565 201.314 135.564 202.033C135.563 202.751 135.848 203.44 136.355 203.948C136.862 204.457 137.551 204.743 138.269 204.744H193.221C193.94 204.745 194.629 204.461 195.138 203.953C195.646 203.446 195.933 202.758 195.934 202.04C195.934 201.321 195.65 200.632 195.143 200.124C194.635 199.615 193.947 199.329 193.229 199.328H138.276Z" fill="#5B33CE"/>
<path d="M192.163 92.4976C191.482 92.5525 190.847 92.8616 190.384 93.3634C189.921 93.8652 189.664 94.5229 189.664 95.2056C189.664 95.8883 189.921 96.5461 190.384 97.0479C190.847 97.5496 191.482 97.8587 192.163 97.9136H310.125C310.805 97.8587 311.44 97.5496 311.903 97.0479C312.366 96.5461 312.623 95.8883 312.623 95.2056C312.623 94.5229 312.366 93.8652 311.903 93.3634C311.44 92.8616 310.805 92.5525 310.125 92.4976H192.163Z" fill="#E6E6E6"/>
<path d="M192.939 108.721C191.127 108.721 189.659 109.934 189.659 111.429C189.659 112.924 191.127 114.137 192.939 114.137H347.566C349.378 114.137 350.846 112.924 350.846 111.429C350.846 109.934 349.378 108.721 347.566 108.721H192.939Z" fill="#E6E6E6"/>
</g>
<defs>
<clipPath id="clip0_19_25">
<rect width="593" height="740" fill="white"/>
</clipPath>
</defs>
</svg>
