<svg width="23" height="18" viewBox="0 0 23 18" fill="none" xmlns="http://www.w3.org/2000/svg">
<path d="M19.4895 1.72799C19.4831 1.71562 19.4725 1.70593 19.4596 1.70065C17.9705 1.01739 16.3989 0.530176 14.7844 0.251195C14.7697 0.248468 14.7546 0.250435 14.7411 0.256817C14.7276 0.263199 14.7165 0.27367 14.7093 0.286742C14.4953 0.675136 14.301 1.07408 14.1273 1.48205C12.3869 1.21787 10.6166 1.21787 8.87624 1.48205C8.70131 1.07304 8.50394 0.674001 8.28503 0.286742C8.27753 0.273954 8.26634 0.263724 8.25294 0.257384C8.23953 0.251044 8.22453 0.248887 8.20988 0.251195C6.59518 0.529591 5.02356 1.01684 3.53456 1.70069C3.52182 1.70609 3.51106 1.71532 3.50378 1.72709C0.526088 6.17389 -0.289615 10.5114 0.110541 14.7951C0.111667 14.8056 0.114893 14.8158 0.120026 14.825C0.12516 14.8342 0.132097 14.8423 0.140424 14.8488C1.87431 16.1326 3.81368 17.1126 5.87578 17.7468C5.8903 17.7512 5.90581 17.751 5.92021 17.7463C5.93462 17.7415 5.94723 17.7325 5.95636 17.7204C6.39926 17.1178 6.79169 16.4797 7.12968 15.8125C7.13433 15.8034 7.13698 15.7933 7.13746 15.7831C7.13795 15.7728 7.13625 15.7626 7.13249 15.753C7.12873 15.7435 7.12299 15.7348 7.11564 15.7277C7.1083 15.7205 7.09952 15.715 7.08988 15.7114C6.47103 15.4746 5.87192 15.1892 5.29816 14.8578C5.28774 14.8517 5.27898 14.8431 5.27267 14.8328C5.26636 14.8224 5.26268 14.8107 5.26197 14.7987C5.26126 14.7866 5.26352 14.7745 5.26858 14.7636C5.27363 14.7526 5.28131 14.743 5.29093 14.7357C5.41132 14.6455 5.53179 14.5517 5.64675 14.4569C5.65697 14.4485 5.66932 14.4431 5.68244 14.4413C5.69555 14.4396 5.7089 14.4415 5.72097 14.4469C9.47992 16.1624 13.5495 16.1624 17.2639 14.4469C17.276 14.4411 17.2895 14.4389 17.3028 14.4406C17.3161 14.4422 17.3287 14.4475 17.3391 14.456C17.4541 14.5508 17.5745 14.6455 17.6958 14.7357C17.7055 14.7429 17.7132 14.7524 17.7184 14.7634C17.7235 14.7743 17.7259 14.7864 17.7252 14.7984C17.7246 14.8105 17.721 14.8222 17.7148 14.8326C17.7085 14.8429 17.6999 14.8516 17.6895 14.8578C17.117 15.192 16.5174 15.4773 15.8969 15.7105C15.8873 15.7142 15.8785 15.7199 15.8712 15.7271C15.8639 15.7344 15.8582 15.7432 15.8546 15.7528C15.8509 15.7624 15.8493 15.7727 15.8498 15.783C15.8504 15.7933 15.8531 15.8034 15.8578 15.8125C16.2015 16.476 16.5934 17.1133 17.0303 17.7194C17.0391 17.7318 17.0517 17.7411 17.0662 17.746C17.0806 17.7509 17.0963 17.7512 17.1109 17.7467C19.1766 17.1146 21.1194 16.1346 22.8555 14.8488C22.8639 14.8426 22.871 14.8347 22.8761 14.8256C22.8813 14.8165 22.8844 14.8064 22.8853 14.796C23.3644 9.84354 22.0833 5.54162 19.4895 1.72799ZM7.69105 12.1867C6.55933 12.1867 5.62683 11.1482 5.62683 9.87272C5.62683 8.59725 6.54124 7.55862 7.69105 7.55862C8.84984 7.55862 9.77332 8.60627 9.75523 9.87264C9.75523 11.1482 8.84078 12.1867 7.69105 12.1867ZM15.3231 12.1867C14.1914 12.1867 13.2589 11.1482 13.2589 9.87272C13.2589 8.59725 14.1733 7.55862 15.3231 7.55862C16.4819 7.55862 17.4054 8.60627 17.3873 9.87264C17.3873 11.1482 16.4819 12.1867 15.3231 12.1867Z" fill="white" fill-opacity="0.2"/>
</svg>
